<svg width="100" height="100" viewBox="0 0 100 100" fill="none" xmlns="http://www.w3.org/2000/svg">
<rect width="100" height="100" fill="#161D27"/>
<path d="M21.1356 55H16.0676V45.662H20.9816C21.8309 45.662 22.4889 45.8953 22.9556 46.362C23.4316 46.8193 23.6696 47.3793 23.6696 48.042C23.6696 48.6113 23.5156 49.0873 23.2076 49.47C22.8996 49.8527 22.5169 50.0907 22.0596 50.184C22.5636 50.2587 22.9882 50.5153 23.3336 50.954C23.6789 51.3927 23.8516 51.9013 23.8516 52.48C23.8516 53.208 23.6136 53.81 23.1376 54.286C22.6616 54.762 21.9942 55 21.1356 55ZM20.5476 49.4C20.8836 49.4 21.1496 49.3067 21.3456 49.12C21.5416 48.9333 21.6396 48.6907 21.6396 48.392C21.6396 48.0933 21.5369 47.8507 21.3316 47.664C21.1356 47.468 20.8742 47.37 20.5476 47.37H18.0556V49.4H20.5476ZM20.6176 53.278C20.9909 53.278 21.2849 53.1847 21.4996 52.998C21.7142 52.802 21.8216 52.536 21.8216 52.2C21.8216 51.892 21.7142 51.6353 21.4996 51.43C21.2849 51.2153 20.9909 51.108 20.6176 51.108H18.0556V53.278H20.6176ZM29.8728 55.168C28.4541 55.168 27.2688 54.72 26.3168 53.824C25.3741 52.9187 24.9028 51.7567 24.9028 50.338C24.9028 48.9193 25.3741 47.762 26.3168 46.866C27.2688 45.9607 28.4541 45.508 29.8728 45.508C31.6181 45.508 32.9201 46.2687 33.7788 47.79L32.0708 48.63C31.8654 48.238 31.5621 47.916 31.1608 47.664C30.7688 47.4027 30.3394 47.272 29.8728 47.272C29.0234 47.272 28.3234 47.5613 27.7728 48.14C27.2221 48.7187 26.9468 49.4513 26.9468 50.338C26.9468 51.2247 27.2221 51.9573 27.7728 52.536C28.3234 53.1147 29.0234 53.404 29.8728 53.404C30.3394 53.404 30.7688 53.278 31.1608 53.026C31.5621 52.774 31.8654 52.4473 32.0708 52.046L33.7788 52.872C32.8921 54.4027 31.5901 55.168 29.8728 55.168ZM41.5701 55H34.9621V45.662H41.5701V47.412H36.9501V49.386H41.4721V51.136H36.9501V53.25H41.5701V55ZM48.6242 55H46.7062V45.662H48.6942V51.696L53.0202 45.662H55.0642V55H53.0762V48.742L48.6242 55ZM58.8934 55H56.9054V45.662H63.5134V47.412H58.8934V55ZM66.8915 55H64.9035V45.662H69.2715C70.2515 45.662 71.0168 45.9513 71.5675 46.53C72.1275 47.0993 72.4075 47.8133 72.4075 48.672C72.4075 49.5213 72.1275 50.2353 71.5675 50.814C71.0075 51.3927 70.2422 51.682 69.2715 51.682H66.8915V55ZM69.0055 49.932C69.4068 49.932 69.7335 49.82 69.9855 49.596C70.2468 49.3627 70.3775 49.0547 70.3775 48.672C70.3775 48.2893 70.2468 47.986 69.9855 47.762C69.7335 47.5287 69.4068 47.412 69.0055 47.412H66.8915V49.932H69.0055ZM73.6398 45.662H75.6278V48.98H78.0078C78.9785 48.98 79.7438 49.2693 80.3038 49.848C80.8638 50.4267 81.1438 51.1407 81.1438 51.99C81.1438 52.8487 80.8638 53.5673 80.3038 54.146C79.7532 54.7153 78.9878 55 78.0078 55H73.6398V45.662ZM77.7418 50.73H75.6278V53.25H77.7418C78.1432 53.25 78.4698 53.138 78.7218 52.914C78.9832 52.6807 79.1138 52.3727 79.1138 51.99C79.1138 51.6073 78.9832 51.304 78.7218 51.08C78.4698 50.8467 78.1432 50.73 77.7418 50.73ZM83.9298 55H81.9278V45.662H83.9298V55Z" fill="white"/>
</svg>
