<svg width="411" height="166" viewBox="0 0 411 166" fill="none" xmlns="http://www.w3.org/2000/svg">
<path d="M-138.177 -5.86765C-105.256 28.882 -22.7712 55.9501 77.637 64.729L90.4395 65.8263L96.292 50.6462C99.5841 42.2331 102.327 34.9174 102.327 34.3688C102.327 33.6372 92.2684 32.7227 80.0146 31.9911C-6.49371 26.8701 -77.8219 12.7874 -141.834 -12.086C-144.212 -13.0005 -142.932 -10.8058 -138.177 -5.86765Z" fill="url(#paint0_linear_1_233)"/>
<path d="M407.393 -12.0855C406.844 -11.5369 397.151 -7.69611 385.629 -3.67247C332.956 14.9826 262.542 27.6022 187.007 31.9916C174.57 32.7232 164.511 33.8206 164.511 34.3692C164.511 34.9179 167.072 42.2336 170.364 50.6467L176.216 66.0097L189.202 64.7294C274.247 57.0479 343.38 37.8442 384.897 10.4103C397.7 1.81432 413.794 -13 410.319 -13C409.222 -13 407.942 -12.6342 407.393 -12.0855Z" fill="url(#paint1_linear_1_233)"/>
<path d="M99.7666 83.2007C81.8431 128.009 67.5774 165.137 68.1261 165.685C68.6748 166.234 83.4891 159.467 101.047 150.688L132.87 134.776L165.242 150.688C183.166 159.467 198.163 166.234 198.712 165.685C199.077 165.137 188.287 136.788 174.57 102.77C160.853 68.7521 146.221 32.1736 142.015 21.3829C137.808 10.5922 133.968 1.63049 133.419 1.63049C132.87 1.63049 117.873 38.3919 99.7666 83.2007ZM149.513 85.3954C157.744 106.245 164.511 124.352 164.511 125.449C164.511 126.729 158.292 124.534 150.062 120.328C142.198 116.487 134.516 113.195 133.236 113.195C131.773 113.195 124.274 116.487 116.593 120.328C108.728 124.169 101.961 126.912 101.778 126.546C100.864 125.815 132.322 47.3537 133.419 47.3537C133.968 47.3537 141.1 64.5456 149.513 85.3954Z" fill="url(#paint2_linear_1_233)"/>
<path d="M-96.8435 46.8052C-80.9318 66.5576 -36.6718 87.0416 13.6238 97.8323C34.6564 102.405 72.1494 107.526 73.4297 106.245C74.3442 105.148 84.0375 82.4693 84.0375 81.189C84.0375 81.0062 76.9047 80.2746 68.1258 79.543C13.258 75.3365 -49.2914 62.7169 -86.0528 48.2683C-99.9527 42.7816 -99.9527 42.7816 -96.8435 46.8052Z" fill="url(#paint3_linear_1_233)"/>
<path d="M351.976 48.4517C317.592 62.3516 253.58 75.337 198.712 79.5435C180.605 81.0066 181.337 79.5435 189.384 97.8328C193.591 107.526 193.957 107.892 199.809 106.795C202.918 106.246 213.526 104.6 223.037 103.137C283.574 93.992 332.406 75.7027 356.914 52.8411C362.218 47.903 365.876 43.8794 364.778 43.8794C363.864 44.0623 358.011 46.0741 351.976 48.4517Z" fill="url(#paint4_linear_1_233)"/>
<path d="M-49.2919 102.771C-34.2947 116.488 -0.276596 130.936 35.7533 138.801C59.7122 143.922 59.1635 144.105 63.3701 132.948L67.0279 123.255L40.3256 119.231C10.5141 114.659 -26.0645 105.88 -43.8051 99.2959C-50.2063 96.9183 -55.876 94.9065 -56.6076 94.9065C-57.1562 95.0894 -53.8642 98.5643 -49.2919 102.771Z" fill="url(#paint5_linear_1_233)"/>
<path d="M302.96 101.307C281.013 108.989 251.202 115.756 221.756 119.78L199.626 122.889L203.284 132.216C205.296 137.337 207.307 141.91 207.673 142.275C210.234 144.836 261.261 131.85 280.647 123.62C294.364 117.951 313.202 106.611 319.055 100.393C325.456 93.6259 325.273 93.8087 302.96 101.307Z" fill="url(#paint6_linear_1_233)"/>
<defs>
<linearGradient id="paint0_linear_1_233" x1="-3.99983" y1="32.2363" x2="252" y2="206.236" gradientUnits="userSpaceOnUse">
<stop stop-color="#FE0110"/>
<stop offset="1" stop-color="#0500FF"/>
</linearGradient>
<linearGradient id="paint1_linear_1_233" x1="-3.99983" y1="32.2363" x2="252" y2="206.236" gradientUnits="userSpaceOnUse">
<stop stop-color="#FE0110"/>
<stop offset="1" stop-color="#0500FF"/>
</linearGradient>
<linearGradient id="paint2_linear_1_233" x1="-3.99983" y1="32.2363" x2="252" y2="206.236" gradientUnits="userSpaceOnUse">
<stop stop-color="#FE0110"/>
<stop offset="1" stop-color="#0500FF"/>
</linearGradient>
<linearGradient id="paint3_linear_1_233" x1="-3.99983" y1="32.2363" x2="252" y2="206.236" gradientUnits="userSpaceOnUse">
<stop stop-color="#FE0110"/>
<stop offset="1" stop-color="#0500FF"/>
</linearGradient>
<linearGradient id="paint4_linear_1_233" x1="-3.99983" y1="32.2363" x2="252" y2="206.236" gradientUnits="userSpaceOnUse">
<stop stop-color="#FE0110"/>
<stop offset="1" stop-color="#0500FF"/>
</linearGradient>
<linearGradient id="paint5_linear_1_233" x1="-3.99983" y1="32.2363" x2="252" y2="206.236" gradientUnits="userSpaceOnUse">
<stop stop-color="#FE0110"/>
<stop offset="1" stop-color="#0500FF"/>
</linearGradient>
<linearGradient id="paint6_linear_1_233" x1="-3.99983" y1="32.2363" x2="252" y2="206.236" gradientUnits="userSpaceOnUse">
<stop stop-color="#FE0110"/>
<stop offset="1" stop-color="#0500FF"/>
</linearGradient>
</defs>
</svg>
