<svg width="60" height="61" viewBox="0 0 60 61" fill="none" xmlns="http://www.w3.org/2000/svg">
<path opacity="0.4" d="M46.1077 23.5902C45.4967 23.2052 44.7456 23.1712 44.1054 23.4969L41.9441 24.5881C41.1449 24.9908 40.6491 25.8051 40.6491 26.7112V35.2183C40.6491 36.1244 41.1449 36.9373 41.9441 37.3429L44.1039 38.4326C44.3971 38.5836 44.7106 38.6562 45.0242 38.6562C45.4004 38.6562 45.7737 38.5496 46.1077 38.3408C46.7188 37.9573 47.0833 37.2926 47.0833 36.5642V25.3683C47.0833 24.6399 46.7188 23.9751 46.1077 23.5902Z" fill="white"/>
<path d="M32.3616 41.9031H23.9149C20.3827 41.9031 17.9167 39.4676 17.9167 35.9809V25.9502C17.9167 22.4621 20.3827 20.0281 23.9149 20.0281H32.3616C35.8937 20.0281 38.3598 22.4621 38.3598 25.9502V35.9809C38.3598 39.4676 35.8937 41.9031 32.3616 41.9031Z" fill="white"/>
</svg>
