<svg width="36" height="36" viewBox="0 0 36 36" fill="none" xmlns="http://www.w3.org/2000/svg">
<g clip-path="url(#clip0_1_763)">
<g clip-path="url(#clip1_1_763)">
<rect y="0.651367" width="36" height="36" rx="18" fill="white"/>
<path d="M36 18.6514C36 27.6359 29.4173 35.0827 20.8125 36.4327V23.8545H25.0066L25.8047 18.6514H20.8125V15.275C20.8125 13.8511 21.51 12.4639 23.7459 12.4639H26.0156V8.03418C26.0156 8.03418 23.9555 7.68262 21.986 7.68262C17.8748 7.68262 15.1875 10.1745 15.1875 14.6857V18.6514H10.6172V23.8545H15.1875V36.4327C6.58266 35.0827 0 27.6359 0 18.6514C0 8.71058 8.05922 0.651367 18 0.651367C27.9408 0.651367 36 8.71058 36 18.6514Z" fill="#3D1966"/>
</g>
</g>
<defs>
<clipPath id="clip0_1_763">
<rect width="36" height="36" fill="white"/>
</clipPath>
<clipPath id="clip1_1_763">
<rect y="0.651367" width="36" height="36" rx="18" fill="white"/>
</clipPath>
</defs>
</svg>
