<svg width="141" height="63" viewBox="0 0 141 63" fill="none" xmlns="http://www.w3.org/2000/svg">
<mask id="mask0_1_242" style="mask-type:alpha" maskUnits="userSpaceOnUse" x="0" y="0" width="13" height="11">
<path d="M12.075 0H0V10.2476H12.075V0Z" fill="white"/>
</mask>
<g mask="url(#mask0_1_242)">
<path fill-rule="evenodd" clip-rule="evenodd" d="M4.94755 10.2466V9.21667C1.84455 8.95588 0.000366211 7.49682 0.000366211 5.13106C0.000366211 2.78071 1.84455 1.32165 4.94755 1.04436V-0.000976562H7.12844V1.04436C10.2325 1.32165 12.0756 2.76421 12.0756 5.13106C12.0756 7.49682 10.2325 8.95588 7.12844 9.21667V10.2466H4.94755ZM4.94755 7.26574V2.99528C3.18148 3.20985 2.24288 3.97899 2.24288 5.13106C2.24288 6.29854 3.18148 7.05118 4.94755 7.26574ZM7.12844 2.99528V7.26574C8.89561 7.06658 9.84741 6.29854 9.84741 5.13106C9.84741 3.96359 8.89561 3.20985 7.12844 2.99528Z" fill="white"/>
</g>
<mask id="mask1_1_242" style="mask-type:alpha" maskUnits="userSpaceOnUse" x="13" y="0" width="8" height="11">
<path d="M20.8845 0H13.6335V10.2476H20.8845V0Z" fill="white"/>
</mask>
<g mask="url(#mask1_1_242)">
<path fill-rule="evenodd" clip-rule="evenodd" d="M13.6333 10.2476V0H20.8843V1.92121H15.8141V4.08529H20.7771V6.0065H15.8141V8.32635H20.8843V10.2476H13.6333Z" fill="white"/>
</g>
<path fill-rule="evenodd" clip-rule="evenodd" d="M21.9794 8.49581C23.0237 8.35717 23.6069 7.94234 23.9304 5.23877L24.5289 0H31.8122V8.32746H32.7332V12.138H30.5512V10.2476H24.1614V12.138H21.9794V8.49581ZM24.8513 8.32746H29.6148V1.92011H26.4953L26.0958 5.39282C25.9429 6.77596 25.4973 7.72777 24.8513 8.32746Z" fill="white"/>
<mask id="mask2_1_242" style="mask-type:alpha" maskUnits="userSpaceOnUse" x="34" y="0" width="8" height="11">
<path d="M41.2648 0H34.0138V10.2476H41.2648V0Z" fill="white"/>
</mask>
<g mask="url(#mask2_1_242)">
<path fill-rule="evenodd" clip-rule="evenodd" d="M34.0137 10.2476V0H41.2647V1.92121H36.1946V4.08529H41.1575V6.0065H36.1946V8.32635H41.2647V10.2476H34.0137Z" fill="white"/>
</g>
<mask id="mask3_1_242" style="mask-type:alpha" maskUnits="userSpaceOnUse" x="42" y="0" width="10" height="11">
<path d="M51.2044 0H42.9719V10.2476H51.2044V0Z" fill="white"/>
</mask>
<g mask="url(#mask3_1_242)">
<path fill-rule="evenodd" clip-rule="evenodd" d="M42.972 10.2466V-0.000976562H47.7651C49.9922 -0.000976562 51.2059 1.5054 51.2059 3.30228C51.2059 5.08485 49.9768 6.60553 47.7651 6.60553H45.154V10.2466H42.972ZM48.9788 3.30228C48.9788 2.4418 48.3329 1.92024 47.4735 1.92024H45.154V4.68542H47.4735C48.3329 4.68542 48.9788 4.14735 48.9788 3.30228Z" fill="white"/>
</g>
<mask id="mask4_1_242" style="mask-type:alpha" maskUnits="userSpaceOnUse" x="50" y="0" width="11" height="11">
<path d="M60.9808 0H50.3346V10.2476H60.9808V0Z" fill="white"/>
</mask>
<g mask="url(#mask4_1_242)">
<path fill-rule="evenodd" clip-rule="evenodd" d="M58.4914 10.2468L57.862 8.51049H53.4683L52.8235 10.2468H50.3345L54.2969 -0.000732422H57.0323L60.9804 10.2468H58.4914ZM55.6657 2.18126L54.0669 6.59037H57.2623L55.6657 2.18126Z" fill="white"/>
</g>
<mask id="mask5_1_242" style="mask-type:alpha" maskUnits="userSpaceOnUse" x="61" y="0" width="12" height="13">
<path d="M72.0776 0H61.9406V12.1369H72.0776V0Z" fill="white"/>
</mask>
<g mask="url(#mask5_1_242)">
<path fill-rule="evenodd" clip-rule="evenodd" d="M69.8968 10.2478H61.9406V0.000244141H64.1214V8.32659H68.9588V0.000244141H71.1581V8.32659H72.0776V12.1372H69.8968V10.2478Z" fill="white"/>
</g>
<mask id="mask6_1_242" style="mask-type:alpha" maskUnits="userSpaceOnUse" x="73" y="0" width="10" height="11">
<path d="M82.5321 0H73.3615V10.2476H82.5321V0Z" fill="white"/>
</mask>
<g mask="url(#mask6_1_242)">
<path fill-rule="evenodd" clip-rule="evenodd" d="M73.3612 10.2476V0H75.5421V6.62122L80.289 0H82.5318V10.2476H80.3509V3.38012L75.465 10.2476H73.3612Z" fill="white"/>
</g>
<mask id="mask7_1_242" style="mask-type:alpha" maskUnits="userSpaceOnUse" x="84" y="0" width="9" height="11">
<path d="M92.4106 0H84.1161V10.2476H92.4106V0Z" fill="white"/>
</mask>
<g mask="url(#mask7_1_242)">
<path fill-rule="evenodd" clip-rule="evenodd" d="M84.1158 10.2466L86.4211 6.34475C85.3141 6.08397 84.1775 5.11566 84.1775 3.30228C84.1775 1.39757 85.4825 -0.000976562 87.6194 -0.000976562H92.4114V10.2466H90.2305V6.60553H88.6482L86.6191 10.2466H84.1158ZM90.2305 4.68542V1.92024H87.9418C87.0659 1.92024 86.4046 2.4418 86.4046 3.30228C86.4046 4.16275 87.0659 4.68542 87.9418 4.68542H90.2305Z" fill="white"/>
</g>
<path fill-rule="evenodd" clip-rule="evenodd" d="M6.57738 27.5369L3.47363 23.4348L2.67467 24.3879V27.5369H0.493835V17.2893H2.67467V21.8687L6.30101 17.2893H8.98936L4.91747 22.0999L9.26406 27.5369H6.57738Z" fill="white"/>
<path fill-rule="evenodd" clip-rule="evenodd" d="M9.05359 22.4214C9.05359 19.3327 11.3126 17.1221 14.3991 17.1221C17.5032 17.1221 19.7611 19.3327 19.7611 22.4214C19.7611 25.51 17.5032 27.7218 14.3991 27.7218C11.3126 27.7218 9.05359 25.51 9.05359 22.4214ZM17.5186 22.4214C17.5186 20.5012 16.2895 19.0565 14.3991 19.0565C12.5109 19.0565 11.2961 20.5012 11.2961 22.4214C11.2961 24.3261 12.5109 25.7862 14.3991 25.7862C16.2895 25.7862 17.5186 24.3261 17.5186 22.4214Z" fill="white"/>
<path fill-rule="evenodd" clip-rule="evenodd" d="M30.2135 27.5369V20.3612L27.3241 27.5369H26.3727L23.4851 20.3612V27.5369H21.3026V17.2893H24.3611L26.8484 23.4817L29.3375 17.2893H32.4094V27.5369H30.2135Z" fill="white"/>
<path fill-rule="evenodd" clip-rule="evenodd" d="M41.4634 27.5369V19.2105H36.6243V27.5369H34.4418V17.2893H43.6609V27.5369H41.4634Z" fill="white"/>
<path fill-rule="evenodd" clip-rule="evenodd" d="M47.8592 17.29V20.931H50.4703C52.6831 20.931 53.9122 22.4517 53.9122 24.2343C53.9122 26.0312 52.6974 27.5375 50.4703 27.5375H45.6783V17.29H47.8592ZM47.8592 22.8511V25.6163H50.1787C51.0392 25.6163 51.6851 25.0948 51.6851 24.2343C51.6851 23.3892 51.0392 22.8511 50.1787 22.8511H47.8592ZM59.0937 23.2355H57.4497V27.5368H55.2688V17.2903H57.4497V21.3154H59.1388C59.6163 18.8264 61.674 17.1208 64.393 17.1208C67.497 17.1208 69.7396 19.3326 69.7396 22.4212C69.7396 25.5088 67.497 27.7216 64.393 27.7216C61.5661 27.7216 59.4623 25.8929 59.0937 23.2355ZM67.5113 22.4212C67.5113 20.5011 66.2823 19.0564 64.393 19.0564C62.4882 19.0564 61.2757 20.5011 61.2757 22.4212C61.2757 24.326 62.4882 25.785 64.393 25.785C66.2823 25.785 67.5113 24.326 67.5113 22.4212Z" fill="white"/>
<path fill-rule="evenodd" clip-rule="evenodd" d="M73.2937 27.5369V19.2105H70.2972V17.2893H78.4711V19.2105H75.4913V27.5369H73.2937Z" fill="white"/>
<path fill-rule="evenodd" clip-rule="evenodd" d="M79.8717 27.5369V17.2893H87.1244V19.2105H82.0525V21.3763H87.0155V23.2958H82.0525V25.6173H87.1244V27.5369H79.8717Z" fill="white"/>
<path fill-rule="evenodd" clip-rule="evenodd" d="M88.8321 27.5371V17.2896H93.6241C95.8523 17.2896 97.066 18.7959 97.066 20.5928C97.066 22.3754 95.8369 23.8961 93.6241 23.8961H91.013V27.5371H88.8321ZM94.8389 20.5928C94.8389 19.7323 94.193 19.2108 93.3336 19.2108H91.013V21.9759H93.3336C94.193 21.9759 94.8389 21.4379 94.8389 20.5928Z" fill="white"/>
<path fill-rule="evenodd" clip-rule="evenodd" d="M105.442 27.5369V23.2355H100.605V27.5369H98.4226V17.2893H100.605V21.316H105.442V17.2893H107.64V27.5369H105.442Z" fill="white"/>
<path fill-rule="evenodd" clip-rule="evenodd" d="M109.167 22.4214C109.167 19.3327 111.426 17.1221 114.513 17.1221C117.617 17.1221 119.875 19.3327 119.875 22.4214C119.875 25.51 117.617 27.7218 114.513 27.7218C111.426 27.7218 109.167 25.51 109.167 22.4214ZM117.632 22.4214C117.632 20.5012 116.403 19.0565 114.513 19.0565C112.624 19.0565 111.41 20.5012 111.41 22.4214C111.41 24.3261 112.624 25.7862 114.513 25.7862C116.403 25.7862 117.632 24.3261 117.632 22.4214Z" fill="white"/>
<path fill-rule="evenodd" clip-rule="evenodd" d="M121.415 27.5369V17.2893H128.668V19.2105H123.596V27.5369H121.415Z" fill="white"/>
<mask id="mask8_1_242" style="mask-type:alpha" maskUnits="userSpaceOnUse" x="129" y="17" width="12" height="11">
<path d="M140.037 17.1213V27.7206H129.33V17.1213H140.037Z" fill="white"/>
</mask>
<g mask="url(#mask8_1_242)">
<path fill-rule="evenodd" clip-rule="evenodd" d="M129.331 22.4204C129.331 19.3317 131.59 17.1211 134.676 17.1211C137.78 17.1211 140.038 19.3317 140.038 22.4204C140.038 25.5091 137.78 27.7208 134.676 27.7208C131.59 27.7208 129.331 25.5091 129.331 22.4204ZM137.796 22.4204C137.796 20.5003 136.566 19.0555 134.676 19.0555C132.788 19.0555 131.573 20.5003 131.573 22.4204C131.573 24.3251 132.788 25.7853 134.676 25.7853C136.566 25.7853 137.796 24.3251 137.796 22.4204Z" fill="white"/>
</g>
<path fill-rule="evenodd" clip-rule="evenodd" d="M0.00186157 39.7119C0.00186157 36.5627 2.38302 34.4126 5.4552 34.4126C7.71423 34.4126 9.01924 35.6406 9.74217 36.9159L7.86717 37.838C7.43804 37.0083 6.51594 36.347 5.4552 36.347C3.59781 36.347 2.24438 37.7764 2.24438 39.7119C2.24438 41.6485 3.59781 43.0768 5.4552 43.0768C6.51594 43.0768 7.43804 42.432 7.86717 41.5858L9.74217 42.4925C9.00494 43.7689 7.71423 45.0123 5.4552 45.0123C2.38302 45.0123 0.00186157 42.8611 0.00186157 39.7119Z" fill="white"/>
<path fill-rule="evenodd" clip-rule="evenodd" d="M18.0721 44.8276V36.5013H13.2331V44.8276H11.0523V34.5801H20.2697V44.8276H18.0721Z" fill="white"/>
<path fill-rule="evenodd" clip-rule="evenodd" d="M21.7945 39.7119C21.7945 36.6232 24.0535 34.4126 27.14 34.4126C30.2441 34.4126 32.502 36.6232 32.502 39.7119C32.502 42.8006 30.2441 45.0123 27.14 45.0123C24.0535 45.0123 21.7945 42.8006 21.7945 39.7119ZM30.2595 39.7119C30.2595 37.7918 29.0304 36.347 27.14 36.347C25.2518 36.347 24.037 37.7918 24.037 39.7119C24.037 41.6166 25.2518 43.0768 27.14 43.0768C29.0304 43.0768 30.2595 41.6166 30.2595 39.7119ZM34.0434 44.828V34.5804H38.8354C41.0636 34.5804 42.2773 36.0868 42.2773 37.8837C42.2773 39.6662 41.0482 41.1869 38.8354 41.1869H36.2243V44.828H34.0434ZM40.0502 37.8837C40.0502 37.0232 39.4043 36.5016 38.5449 36.5016H36.2243V39.2668H38.5449C39.4043 39.2668 40.0502 38.7287 40.0502 37.8837Z" fill="white"/>
<path fill-rule="evenodd" clip-rule="evenodd" d="M45.9993 44.8276V36.5013H43.0027V34.5801H51.175V36.5013H48.1952V44.8276H45.9993Z" fill="white"/>
<path fill-rule="evenodd" clip-rule="evenodd" d="M58.6609 44.8281L58.0315 43.0918H53.6378L52.993 44.8281H50.504L54.4675 34.5806H57.2019L61.1499 44.8281H58.6609ZM55.8352 36.7626L54.2375 41.1717H57.4318L55.8352 36.7626ZM0.493835 62.1178V51.8703H5.28587C7.51408 51.8703 8.72776 53.3767 8.72776 55.1735C8.72776 56.9561 7.49867 58.4768 5.28587 58.4768H2.67473V62.1178H0.493835ZM6.50065 55.1735C6.50065 54.3131 5.85475 53.7915 4.99537 53.7915H2.67473V56.5567H4.99537C5.85475 56.5567 6.50065 56.0186 6.50065 55.1735ZM9.59209 57.0018C9.59209 53.9131 11.8511 51.7025 14.9376 51.7025C18.0417 51.7025 20.2996 53.9131 20.2996 57.0018C20.2996 60.0905 18.0417 62.3022 14.9376 62.3022C11.8511 62.3022 9.59209 60.0905 9.59209 57.0018ZM18.0571 57.0018C18.0571 55.0817 16.828 53.6369 14.9376 53.6369C13.0494 53.6369 11.8346 55.0817 11.8346 57.0018C11.8346 58.9065 13.0494 60.3666 14.9376 60.3666C16.828 60.3666 18.0571 58.9065 18.0571 57.0018ZM21.3489 57.0018C21.3489 53.8526 23.7301 51.7025 26.8022 51.7025C29.0613 51.7025 30.3663 52.9305 31.0892 54.2058L29.2142 55.1279C28.7851 54.2982 27.863 53.6369 26.8022 53.6369C24.9449 53.6369 23.5914 55.0662 23.5914 57.0018C23.5914 58.9384 24.9449 60.3666 26.8022 60.3666C27.863 60.3666 28.7851 59.7218 29.2142 58.8757L31.0892 59.7824C30.352 61.0588 29.0613 62.3022 26.8022 62.3022C23.7301 62.3022 21.3489 60.151 21.3489 57.0018ZM31.9075 57.0018C31.9075 53.8526 34.2887 51.7025 37.3609 51.7025C39.6199 51.7025 40.9249 52.9305 41.6479 54.2058L39.7729 55.1279C39.3437 54.2982 38.4216 53.6369 37.3609 53.6369C35.5035 53.6369 34.1501 55.0662 34.1501 57.0018C34.1501 58.9384 35.5035 60.3666 37.3609 60.3666C38.4216 60.3666 39.3437 59.7218 39.7729 58.8757L41.6479 59.7824C40.9106 61.0588 39.6199 62.3022 37.3609 62.3022C34.2887 62.3022 31.9075 60.151 31.9075 57.0018Z" fill="white"/>
<path fill-rule="evenodd" clip-rule="evenodd" d="M42.9582 62.1184V51.8708H45.139V58.4921L49.8859 51.8708H52.1304V62.1184H49.9479V55.251L45.062 62.1184H42.9582Z" fill="white"/>
<path fill-rule="evenodd" clip-rule="evenodd" d="M54.1616 62.1184V51.8708H56.3424V58.4921L61.0893 51.8708H63.3321V62.1184H61.1496V55.251L56.2653 62.1184H54.1616Z" fill="white"/>
</svg>
