<svg width="1368" height="420" viewBox="0 0 1368 420" fill="none" xmlns="http://www.w3.org/2000/svg">
<g filter="url(#filter0_ddddd_1_750)">
<path d="M45.3223 16.7426C122.601 98.3146 316.227 161.855 551.927 182.463L581.98 185.039L595.719 149.404C603.447 129.655 609.887 112.482 609.887 111.194C609.887 109.477 586.274 107.33 557.509 105.613C354.437 93.592 187 60.5339 36.7358 2.14552C31.1545 -0.00111127 34.1598 5.15081 45.3223 16.7426Z" fill="url(#paint0_linear_1_750)"/>
<path d="M1326 2.14663C1324.72 3.43461 1301.96 12.4505 1274.91 21.8956C1151.27 65.6869 985.977 95.3105 808.665 105.614C779.471 107.332 755.858 109.908 755.858 111.196C755.858 112.484 761.869 129.657 769.597 149.406L783.335 185.469L813.817 182.464C1013.45 164.432 1175.74 119.353 1273.2 54.9538C1303.25 34.7754 1341.03 0 1332.87 0C1330.3 0 1327.29 0.858653 1326 2.14663Z" fill="url(#paint1_linear_1_750)"/>
<path d="M603.875 225.823C561.801 331.008 528.313 418.162 529.601 419.45C530.889 420.738 565.665 404.853 606.88 384.245L681.583 346.894L757.574 384.245C799.648 404.853 834.853 420.738 836.141 419.45C836.999 418.162 811.669 351.616 779.469 271.761C747.27 191.907 712.924 106.041 703.049 80.7112C693.175 55.3809 684.159 34.3439 682.871 34.3439C681.583 34.3439 646.378 120.639 603.875 225.823ZM720.652 230.975C739.971 279.919 755.857 322.422 755.857 324.998C755.857 328.003 741.259 322.851 721.94 312.977C703.479 303.961 685.447 296.233 682.442 296.233C679.007 296.233 661.405 303.961 643.373 312.977C624.912 321.993 609.027 328.432 608.598 327.574C606.451 325.857 680.295 141.676 682.871 141.676C684.159 141.676 700.903 182.032 720.652 230.975Z" fill="url(#paint2_linear_1_750)"/>
<path d="M142.348 140.388C179.7 186.755 283.597 234.84 401.661 260.17C451.034 270.903 539.046 282.924 542.051 279.919C544.198 277.343 566.952 224.107 566.952 221.101C566.952 220.672 550.208 218.955 529.601 217.237C400.803 207.363 253.973 177.739 167.679 143.823C135.05 130.943 135.05 130.943 142.348 140.388Z" fill="url(#paint3_linear_1_750)"/>
<path d="M1195.92 144.253C1115.2 176.882 964.939 207.364 836.141 217.239C793.638 220.673 795.355 217.239 814.245 260.171C824.12 282.925 824.979 283.784 838.717 281.208C846.016 279.92 870.917 276.056 893.242 272.622C1035.35 251.155 1149.98 208.223 1207.51 154.557C1219.96 142.965 1228.55 133.52 1225.97 133.52C1223.82 133.949 1210.08 138.672 1195.92 144.253Z" fill="url(#paint4_linear_1_750)"/>
<path d="M253.972 271.763C289.177 303.962 369.032 337.879 453.609 356.34C509.851 368.361 508.563 368.791 518.437 342.602L527.024 319.848L464.342 310.402C394.362 299.669 308.496 279.062 266.852 263.606C251.825 258.025 238.516 253.302 236.799 253.302C235.511 253.731 243.239 261.888 253.972 271.763Z" fill="url(#paint5_linear_1_750)"/>
<path d="M1080.86 268.327C1029.34 286.359 959.357 302.244 890.235 311.689L838.287 318.988L846.873 340.884C851.596 352.905 856.318 363.638 857.177 364.497C863.188 370.507 982.97 340.025 1028.48 320.705C1060.68 307.396 1104.9 280.778 1118.64 266.181C1133.66 250.296 1133.23 250.725 1080.86 268.327Z" fill="url(#paint6_linear_1_750)"/>
</g>
<defs>
<filter id="filter0_ddddd_1_750" x="0.577911" y="0" width="1366.84" height="494.722" filterUnits="userSpaceOnUse" color-interpolation-filters="sRGB">
<feFlood flood-opacity="0" result="BackgroundImageFix"/>
<feColorMatrix in="SourceAlpha" type="matrix" values="0 0 0 0 0 0 0 0 0 0 0 0 0 0 0 0 0 0 127 0" result="hardAlpha"/>
<feOffset dy="2.76726"/>
<feGaussianBlur stdDeviation="1.1069"/>
<feColorMatrix type="matrix" values="0 0 0 0 0.00392157 0 0 0 0 0.0588235 0 0 0 0 0.00784314 0 0 0 0.030926 0"/>
<feBlend mode="normal" in2="BackgroundImageFix" result="effect1_dropShadow_1_750"/>
<feColorMatrix in="SourceAlpha" type="matrix" values="0 0 0 0 0 0 0 0 0 0 0 0 0 0 0 0 0 0 127 0" result="hardAlpha"/>
<feOffset dy="6.6501"/>
<feGaussianBlur stdDeviation="2.66004"/>
<feColorMatrix type="matrix" values="0 0 0 0 0.00392157 0 0 0 0 0.0588235 0 0 0 0 0.00784314 0 0 0 0.0444282 0"/>
<feBlend mode="normal" in2="effect1_dropShadow_1_750" result="effect2_dropShadow_1_750"/>
<feColorMatrix in="SourceAlpha" type="matrix" values="0 0 0 0 0 0 0 0 0 0 0 0 0 0 0 0 0 0 127 0" result="hardAlpha"/>
<feOffset dy="12.5216"/>
<feGaussianBlur stdDeviation="5.00862"/>
<feColorMatrix type="matrix" values="0 0 0 0 0.00392157 0 0 0 0 0.0588235 0 0 0 0 0.00784314 0 0 0 0.055 0"/>
<feBlend mode="normal" in2="effect2_dropShadow_1_750" result="effect3_dropShadow_1_750"/>
<feColorMatrix in="SourceAlpha" type="matrix" values="0 0 0 0 0 0 0 0 0 0 0 0 0 0 0 0 0 0 127 0" result="hardAlpha"/>
<feOffset dy="22.3363"/>
<feGaussianBlur stdDeviation="8.93452"/>
<feColorMatrix type="matrix" values="0 0 0 0 0.00392157 0 0 0 0 0.0588235 0 0 0 0 0.00784314 0 0 0 0.0655718 0"/>
<feBlend mode="normal" in2="effect3_dropShadow_1_750" result="effect4_dropShadow_1_750"/>
<feColorMatrix in="SourceAlpha" type="matrix" values="0 0 0 0 0 0 0 0 0 0 0 0 0 0 0 0 0 0 127 0" result="hardAlpha"/>
<feOffset dy="41.7776"/>
<feGaussianBlur stdDeviation="16.711"/>
<feColorMatrix type="matrix" values="0 0 0 0 0.00392157 0 0 0 0 0.0588235 0 0 0 0 0.00784314 0 0 0 0.079074 0"/>
<feBlend mode="normal" in2="effect4_dropShadow_1_750" result="effect5_dropShadow_1_750"/>
<feBlend mode="normal" in="SourceGraphic" in2="effect5_dropShadow_1_750" result="shape"/>
</filter>
<linearGradient id="paint0_linear_1_750" x1="698.5" y1="-148" x2="684" y2="419.523" gradientUnits="userSpaceOnUse">
<stop stop-color="#4C84EE"/>
<stop offset="1" stop-color="#163673" stop-opacity="0"/>
</linearGradient>
<linearGradient id="paint1_linear_1_750" x1="698.5" y1="-148" x2="684" y2="419.523" gradientUnits="userSpaceOnUse">
<stop stop-color="#4C84EE"/>
<stop offset="1" stop-color="#163673" stop-opacity="0"/>
</linearGradient>
<linearGradient id="paint2_linear_1_750" x1="698.5" y1="-148" x2="684" y2="419.523" gradientUnits="userSpaceOnUse">
<stop stop-color="#4C84EE"/>
<stop offset="1" stop-color="#163673" stop-opacity="0"/>
</linearGradient>
<linearGradient id="paint3_linear_1_750" x1="698.5" y1="-148" x2="684" y2="419.523" gradientUnits="userSpaceOnUse">
<stop stop-color="#4C84EE"/>
<stop offset="1" stop-color="#163673" stop-opacity="0"/>
</linearGradient>
<linearGradient id="paint4_linear_1_750" x1="698.5" y1="-148" x2="684" y2="419.523" gradientUnits="userSpaceOnUse">
<stop stop-color="#4C84EE"/>
<stop offset="1" stop-color="#163673" stop-opacity="0"/>
</linearGradient>
<linearGradient id="paint5_linear_1_750" x1="698.5" y1="-148" x2="684" y2="419.523" gradientUnits="userSpaceOnUse">
<stop stop-color="#4C84EE"/>
<stop offset="1" stop-color="#163673" stop-opacity="0"/>
</linearGradient>
<linearGradient id="paint6_linear_1_750" x1="698.5" y1="-148" x2="684" y2="419.523" gradientUnits="userSpaceOnUse">
<stop stop-color="#4C84EE"/>
<stop offset="1" stop-color="#163673" stop-opacity="0"/>
</linearGradient>
</defs>
</svg>
