<svg width="28" height="30" viewBox="0 0 28 30" fill="none" xmlns="http://www.w3.org/2000/svg">
<path d="M9.68878 27.6269V23.1544C9.68875 22.021 10.6104 21.1003 11.7519 21.0932H15.9434C17.09 21.0932 18.0196 22.016 18.0196 23.1544V27.6139C18.0195 28.5969 18.8184 29.3958 19.8085 29.403H22.6681C24.0036 29.4064 25.2857 28.8821 26.2313 27.9457C27.1769 27.0093 27.7083 25.7378 27.7083 24.4119V11.7074C27.7083 10.6363 27.2301 9.62028 26.4026 8.9331L16.6877 1.21964C14.9895 -0.129535 12.5641 -0.0859516 10.9162 1.32335L1.41023 8.9331C0.54358 9.60003 0.0255971 10.619 0 11.7074V24.3989C0 27.1626 2.2566 29.403 5.04025 29.403H7.83459C8.31129 29.4064 8.76967 29.2208 9.10798 28.8874C9.44629 28.5539 9.63656 28.1002 9.63655 27.6269H9.68878Z" fill="white"/>
</svg>
