<svg width="60" height="61" viewBox="0 0 60 60" fill="none" xmlns="http://www.w3.org/2000/svg">
<path d="M27.6888 43.6269V39.1544C27.6888 38.021 28.6104 37.1003 29.7519 37.0932H33.9434C35.09 37.0932 36.0196 38.016 36.0196 39.1544V43.6139C36.0195 44.5969 36.8184 45.3958 37.8085 45.403H40.6681C42.0036 45.4064 43.2857 44.8821 44.2313 43.9457C45.1769 43.0093 45.7083 41.7378 45.7083 40.4119V27.7074C45.7083 26.6363 45.2301 25.6203 44.4026 24.9331L34.6877 17.2196C32.9895 15.8705 30.5641 15.914 28.9162 17.3233L19.4102 24.9331C18.5436 25.6 18.0256 26.619 18 27.7074V40.3989C18 43.1626 20.2566 45.403 23.0403 45.403H25.8346C26.3113 45.4064 26.7697 45.2208 27.108 44.8874C27.4463 44.5539 27.6366 44.1002 27.6365 43.6269H27.6888Z" fill="white"/>
</svg>
