<svg width="36" height="36" viewBox="0 0 36 36" fill="none" xmlns="http://www.w3.org/2000/svg">
<rect width="36" height="36" rx="18" fill="#3D1966"/>
<path d="M17.9976 14.6501C16.345 14.6501 14.9964 15.9988 14.9964 17.6514C14.9964 19.304 16.345 20.6526 17.9976 20.6526C19.6502 20.6526 20.9988 19.304 20.9988 17.6514C20.9988 15.9988 19.6502 14.6501 17.9976 14.6501ZM26.999 17.6514C26.999 16.4085 27.0103 15.1769 26.9405 13.9364C26.8707 12.4954 26.5419 11.2165 25.4883 10.1628C24.4323 9.10684 23.1557 8.78037 21.7148 8.71058C20.472 8.64078 19.2404 8.65204 17.9998 8.65204C16.757 8.65204 15.5255 8.64078 14.2849 8.71058C12.8439 8.78037 11.5651 9.1091 10.5114 10.1628C9.45547 11.2188 9.129 12.4954 9.05921 13.9364C8.98941 15.1792 9.00067 16.4108 9.00067 17.6514C9.00067 18.892 8.98941 20.1258 9.05921 21.3664C9.129 22.8074 9.45772 24.0862 10.5114 25.1399C11.5674 26.1959 12.8439 26.5224 14.2849 26.5922C15.5277 26.662 16.7593 26.6507 17.9998 26.6507C19.2426 26.6507 20.4742 26.662 21.7148 26.5922C23.1557 26.5224 24.4346 26.1936 25.4883 25.1399C26.5442 24.084 26.8707 22.8074 26.9405 21.3664C27.0125 20.1258 26.999 18.8942 26.999 17.6514ZM17.9976 22.2692C15.4422 22.2692 13.3798 20.2068 13.3798 17.6514C13.3798 15.0959 15.4422 13.0335 17.9976 13.0335C20.553 13.0335 22.6154 15.0959 22.6154 17.6514C22.6154 20.2068 20.553 22.2692 17.9976 22.2692ZM22.8045 13.9228C22.2078 13.9228 21.726 13.441 21.726 12.8444C21.726 12.2477 22.2078 11.7659 22.8045 11.7659C23.4011 11.7659 23.8829 12.2477 23.8829 12.8444C23.8831 12.986 23.8554 13.1264 23.8012 13.2573C23.7471 13.3882 23.6677 13.5072 23.5675 13.6074C23.4673 13.7075 23.3483 13.787 23.2174 13.8411C23.0865 13.8953 22.9462 13.923 22.8045 13.9228Z" fill="white"/>
</svg>
