<svg width="60" height="61" viewBox="0 0 60 61" fill="none" xmlns="http://www.w3.org/2000/svg">
<path opacity="0.4" d="M32.4033 21.815V22.0819C31.6877 22.0678 30.9721 22.0678 30.2566 22.0678V21.829C30.2566 20.8596 29.4408 20.0728 28.4676 20.0728H27.0508C25.4336 20.0728 24.117 18.7803 24.117 17.2068C24.117 16.6308 24.6036 16.1531 25.1903 16.1531C25.7914 16.1531 26.2637 16.6308 26.2637 17.2068C26.2637 17.6283 26.6215 17.9654 27.0508 17.9654H28.4676C30.6287 17.9795 32.389 19.7076 32.4033 21.815Z" fill="white"/>
<path fill-rule="evenodd" clip-rule="evenodd" d="M35.1142 22.107C35.5737 22.1133 36.0343 22.1196 36.4965 22.1243C41.4625 22.1243 45.0833 25.6647 45.0833 30.5539V36.834C45.0833 41.7231 41.4625 45.2635 36.4965 45.2635C34.5072 45.3057 32.5179 45.3197 30.5143 45.3197C28.5107 45.3197 26.4928 45.3057 24.5035 45.2635C19.5375 45.2635 15.9167 41.7231 15.9167 36.834V30.5539C15.9167 25.6647 19.5375 22.1243 24.5178 22.1243C26.3926 22.0962 28.3104 22.0681 30.2567 22.0681C30.9723 22.0681 31.6878 22.0681 32.4034 22.0822C33.3056 22.0822 34.2078 22.0945 35.1142 22.107ZM28.8256 34.7406H27.3229V36.2298C27.3229 36.8059 26.8363 37.2835 26.2495 37.2835C25.6484 37.2835 25.1762 36.8059 25.1762 36.2298V34.7406H23.6591C23.0724 34.7406 22.5858 34.277 22.5858 33.6869C22.5858 33.1109 23.0724 32.6332 23.6591 32.6332H25.1762V31.158C25.1762 30.582 25.6484 30.1043 26.2495 30.1043C26.8363 30.1043 27.3229 30.582 27.3229 31.158V32.6332H28.8256C29.4123 32.6332 29.8989 33.1109 29.8989 33.6869C29.8989 34.277 29.4123 34.7406 28.8256 34.7406ZM34.9079 32.3663H35.051C35.6378 32.3663 36.1244 31.9026 36.1244 31.3126C36.1244 30.7365 35.6378 30.2589 35.051 30.2589H34.9079C34.3068 30.2589 33.8346 30.7365 33.8346 31.3126C33.8346 31.9026 34.3068 32.3663 34.9079 32.3663ZM37.3552 37.1992H37.4983C38.0851 37.1992 38.5716 36.7356 38.5716 36.1455C38.5716 35.5695 38.0851 35.0918 37.4983 35.0918H37.3552C36.7541 35.0918 36.2818 35.5695 36.2818 36.1455C36.2818 36.7356 36.7541 37.1992 37.3552 37.1992Z" fill="white"/>
</svg>
