<svg width="198" height="64" viewBox="0 0 198 64" fill="none" xmlns="http://www.w3.org/2000/svg">
<path d="M1.71937 2.54271C13.4564 14.9318 42.8641 24.5822 78.6619 27.712L83.2263 28.1033L85.3128 22.6912C86.4865 19.6918 87.4646 17.0835 87.4646 16.8879C87.4646 16.6271 83.8783 16.3011 79.5095 16.0403C48.6673 14.2145 23.2372 9.19367 0.415262 0.325726C-0.43241 -0.000301361 0.0240288 0.782164 1.71937 2.54271Z" fill="white"/>
<path d="M196.228 0.325951C196.032 0.521566 192.576 1.89088 188.468 3.3254C169.689 9.97636 144.585 14.4755 117.655 16.0405C113.221 16.3013 109.635 16.6925 109.635 16.8881C109.635 17.0838 110.548 19.692 111.722 22.6914L113.808 28.1687L118.438 27.7123C148.758 24.9736 173.406 18.1271 188.208 8.34623C192.772 5.28157 198.51 -7.82013e-05 197.271 -7.82013e-05C196.88 -7.82013e-05 196.423 0.130333 196.228 0.325951Z" fill="white"/>
<path d="M86.5516 34.2978C80.1615 50.2731 75.0755 63.5098 75.2711 63.7054C75.4667 63.9011 80.7483 61.4885 87.0081 58.3586L98.3538 52.6857L109.895 58.3586C116.285 61.4885 121.632 63.9011 121.828 63.7054C121.958 63.5098 118.111 53.403 113.221 41.2748C108.33 29.1465 103.114 16.1054 101.614 12.2583C100.114 8.41119 98.7451 5.21611 98.5494 5.21611C98.3538 5.21611 93.007 18.3224 86.5516 34.2978ZM104.288 35.0802C107.222 42.5137 109.634 48.969 109.634 49.3602C109.634 49.8167 107.417 49.0342 104.483 47.5345C101.679 46.1652 98.9407 44.9915 98.4842 44.9915C97.9626 44.9915 95.2892 46.1652 92.5505 47.5345C89.7467 48.9038 87.3341 49.8819 87.2689 49.7515C86.9429 49.4906 98.1582 21.5175 98.5494 21.5175C98.7451 21.5175 101.288 27.6468 104.288 35.0802Z" fill="white"/>
<path d="M16.4555 21.322C22.1284 28.3642 37.9082 35.6672 55.8397 39.5143C63.3383 41.1445 76.7054 42.9702 77.1619 42.5138C77.4879 42.1226 80.9438 34.0371 80.9438 33.5806C80.9438 33.5154 78.4008 33.2546 75.2709 32.9938C55.7093 31.4941 33.409 26.9949 20.3027 21.8436C15.347 19.8875 15.347 19.8875 16.4555 21.322Z" fill="white"/>
<path d="M176.47 21.9089C164.212 26.8646 141.39 31.4941 121.828 32.9939C115.373 33.5155 115.634 32.9939 118.503 39.5144C120.002 42.9703 120.133 43.1007 122.219 42.7095C123.328 42.5139 127.11 41.927 130.501 41.4054C152.084 38.1451 169.493 31.6246 178.231 23.4739C180.122 21.7133 181.426 20.2788 181.035 20.2788C180.709 20.344 178.622 21.0613 176.47 21.9089Z" fill="white"/>
<path d="M33.4093 41.275C38.7562 46.1654 50.8844 51.3167 63.7299 54.1205C72.2718 55.9463 72.0762 56.0115 73.5759 52.0339L74.88 48.578L65.36 47.1435C54.7315 45.5134 41.6904 42.3835 35.3655 40.0361C33.0833 39.1884 31.0619 38.4712 30.8011 38.4712C30.6055 38.5364 31.7792 39.7753 33.4093 41.275Z" fill="white"/>
<path d="M158.995 40.7531C151.171 43.4917 140.542 45.9043 130.044 47.3389L122.154 48.4474L123.458 51.7728C124.176 53.5986 124.893 55.2287 125.023 55.3591C125.936 56.272 144.128 51.6424 151.04 48.7082C155.931 46.6868 162.647 42.6441 164.733 40.4271C167.016 38.0145 166.95 38.0797 158.995 40.7531Z" fill="white"/>
</svg>
