<svg width="412" height="166" viewBox="0 0 412 166" fill="none" xmlns="http://www.w3.org/2000/svg">
<path d="M-138.177 -5.86765C-105.256 28.882 -22.7712 55.9501 77.637 64.729L90.4395 65.8263L96.292 50.6462C99.5841 42.2331 102.327 34.9174 102.327 34.3688C102.327 33.6372 92.2684 32.7227 80.0146 31.9911C-6.49371 26.8701 -77.8219 12.7874 -141.834 -12.086C-144.212 -13.0005 -142.932 -10.8058 -138.177 -5.86765Z" fill="url(#paint0_linear_1_231)"/>
<path d="M407.393 -12.0855C406.844 -11.5369 397.151 -7.69611 385.629 -3.67247C332.956 14.9826 262.542 27.6022 187.007 31.9916C174.57 32.7232 164.511 33.8206 164.511 34.3692C164.511 34.9179 167.072 42.2336 170.364 50.6467L176.216 66.0097L189.202 64.7294C274.247 57.0479 343.38 37.8442 384.897 10.4103C397.7 1.81432 413.794 -13 410.319 -13C409.222 -13 407.942 -12.6342 407.393 -12.0855Z" fill="url(#paint1_linear_1_231)"/>
<path d="M99.7666 83.2007C81.8431 128.009 67.5774 165.137 68.1261 165.685C68.6748 166.234 83.4891 159.467 101.047 150.688L132.87 134.776L165.242 150.688C183.166 159.467 198.163 166.234 198.712 165.685C199.077 165.137 188.287 136.788 174.57 102.77C160.853 68.7521 146.221 32.1736 142.015 21.3829C137.808 10.5922 133.968 1.63049 133.419 1.63049C132.87 1.63049 117.873 38.3919 99.7666 83.2007ZM149.513 85.3954C157.744 106.245 164.511 124.352 164.511 125.449C164.511 126.729 158.292 124.534 150.062 120.328C142.198 116.487 134.516 113.195 133.236 113.195C131.773 113.195 124.274 116.487 116.593 120.328C108.728 124.169 101.961 126.912 101.778 126.546C100.864 125.815 132.322 47.3537 133.419 47.3537C133.968 47.3537 141.1 64.5456 149.513 85.3954Z" fill="url(#paint2_linear_1_231)"/>
<path d="M-96.8435 46.8052C-80.9318 66.5576 -36.6718 87.0416 13.6238 97.8323C34.6564 102.405 72.1494 107.526 73.4297 106.245C74.3442 105.148 84.0375 82.4693 84.0375 81.189C84.0375 81.0062 76.9047 80.2746 68.1258 79.543C13.258 75.3365 -49.2914 62.7169 -86.0528 48.2683C-99.9527 42.7816 -99.9527 42.7816 -96.8435 46.8052Z" fill="url(#paint3_linear_1_231)"/>
<path d="M351.976 48.4517C317.592 62.3516 253.58 75.337 198.712 79.5435C180.605 81.0066 181.337 79.5435 189.384 97.8328C193.591 107.526 193.957 107.892 199.809 106.795C202.918 106.246 213.526 104.6 223.037 103.137C283.574 93.992 332.406 75.7027 356.914 52.8411C362.218 47.903 365.876 43.8794 364.778 43.8794C363.864 44.0623 358.011 46.0741 351.976 48.4517Z" fill="url(#paint4_linear_1_231)"/>
<path d="M-49.2919 102.771C-34.2947 116.488 -0.276596 130.936 35.7533 138.801C59.7122 143.922 59.1635 144.105 63.3701 132.948L67.0279 123.255L40.3256 119.231C10.5141 114.659 -26.0645 105.88 -43.8051 99.2959C-50.2063 96.9183 -55.876 94.9065 -56.6076 94.9065C-57.1562 95.0894 -53.8642 98.5643 -49.2919 102.771Z" fill="url(#paint5_linear_1_231)"/>
<path d="M302.96 101.307C281.013 108.989 251.202 115.756 221.756 119.78L199.626 122.889L203.284 132.216C205.296 137.337 207.307 141.91 207.673 142.275C210.234 144.836 261.261 131.85 280.647 123.62C294.364 117.951 313.202 106.611 319.055 100.393C325.456 93.6259 325.273 93.8087 302.96 101.307Z" fill="url(#paint6_linear_1_231)"/>
<path d="M36.7194 56.5427C48.4564 68.9318 77.8641 78.5822 113.662 81.712L118.226 82.1033L120.313 76.6912C121.487 73.6918 122.465 71.0835 122.465 70.8879C122.465 70.6271 118.878 70.3011 114.51 70.0403C83.6673 68.2145 58.2372 63.1937 35.4153 54.3257C34.5676 53.9997 35.024 54.7822 36.7194 56.5427Z" fill="white"/>
<path d="M231.228 54.326C231.032 54.5216 227.576 55.8909 223.468 57.3254C204.689 63.9764 179.585 68.4755 152.655 70.0405C148.221 70.3013 144.635 70.6925 144.635 70.8881C144.635 71.0838 145.548 73.692 146.722 76.6914L148.808 82.1687L153.438 81.7123C183.758 78.9736 208.406 72.1271 223.208 62.3462C227.772 59.2816 233.51 53.9999 232.271 53.9999C231.88 53.9999 231.423 54.1303 231.228 54.326Z" fill="white"/>
<path d="M121.552 88.2978C115.161 104.273 110.075 117.51 110.271 117.705C110.467 117.901 115.748 115.488 122.008 112.359L133.354 106.686L144.895 112.359C151.285 115.488 156.632 117.901 156.828 117.705C156.958 117.51 153.111 107.403 148.221 95.2748C143.33 83.1465 138.114 70.1054 136.614 66.2583C135.114 62.4112 133.745 59.2161 133.549 59.2161C133.354 59.2161 128.007 72.3224 121.552 88.2978ZM139.288 89.0802C142.222 96.5137 144.634 102.969 144.634 103.36C144.634 103.817 142.417 103.034 139.483 101.534C136.679 100.165 133.941 98.9915 133.484 98.9915C132.963 98.9915 130.289 100.165 127.551 101.534C124.747 102.904 122.334 103.882 122.269 103.751C121.943 103.491 133.158 75.5175 133.549 75.5175C133.745 75.5175 136.288 81.6468 139.288 89.0802Z" fill="white"/>
<path d="M51.4555 75.322C57.1284 82.3642 72.9082 89.6672 90.8397 93.5143C98.3383 95.1445 111.705 96.9702 112.162 96.5138C112.488 96.1226 115.944 88.0371 115.944 87.5806C115.944 87.5154 113.401 87.2546 110.271 86.9938C90.7093 85.4941 68.409 80.9949 55.3027 75.8436C50.347 73.8875 50.347 73.8875 51.4555 75.322Z" fill="white"/>
<path d="M211.47 75.9089C199.212 80.8646 176.39 85.4941 156.828 86.9939C150.373 87.5155 150.634 86.9939 153.503 93.5144C155.002 96.9703 155.133 97.1007 157.219 96.7095C158.328 96.5139 162.11 95.927 165.501 95.4054C187.084 92.1451 204.493 85.6246 213.231 77.4739C215.122 75.7133 216.426 74.2788 216.035 74.2788C215.709 74.344 213.622 75.0613 211.47 75.9089Z" fill="white"/>
<path d="M68.4093 95.275C73.7562 100.165 85.8844 105.317 98.7299 108.121C107.272 109.946 107.076 110.011 108.576 106.034L109.88 102.578L100.36 101.144C89.7315 99.5134 76.6904 96.3835 70.3655 94.0361C68.0833 93.1884 66.0619 92.4712 65.8011 92.4712C65.6055 92.5364 66.7792 93.7753 68.4093 95.275Z" fill="white"/>
<path d="M193.995 94.7531C186.171 97.4917 175.542 99.9043 165.044 101.339L157.154 102.447L158.458 105.773C159.176 107.599 159.893 109.229 160.023 109.359C160.936 110.272 179.128 105.642 186.04 102.708C190.931 100.687 197.647 96.6441 199.733 94.4271C202.016 92.0145 201.95 92.0797 193.995 94.7531Z" fill="white"/>
<mask id="mask0_1_231" style="mask-type:alpha" maskUnits="userSpaceOnUse" x="271" y="54" width="13" height="11">
<path d="M283.075 54H271V64.2476H283.075V54Z" fill="white"/>
</mask>
<g mask="url(#mask0_1_231)">
<path fill-rule="evenodd" clip-rule="evenodd" d="M275.948 64.2466V63.2167C272.845 62.9559 271 61.4968 271 59.1311C271 56.7807 272.845 55.3216 275.948 55.0444V53.999H278.128V55.0444C281.233 55.3216 283.076 56.7642 283.076 59.1311C283.076 61.4968 281.233 62.9559 278.128 63.2167V64.2466H275.948ZM275.948 61.2657V56.9953C274.181 57.2098 273.243 57.979 273.243 59.1311C273.243 60.2985 274.181 61.0512 275.948 61.2657ZM278.128 56.9953V61.2657C279.896 61.0666 280.847 60.2985 280.847 59.1311C280.847 57.9636 279.896 57.2098 278.128 56.9953Z" fill="white"/>
</g>
<mask id="mask1_1_231" style="mask-type:alpha" maskUnits="userSpaceOnUse" x="284" y="54" width="8" height="11">
<path d="M291.884 54H284.633V64.2476H291.884V54Z" fill="white"/>
</mask>
<g mask="url(#mask1_1_231)">
<path fill-rule="evenodd" clip-rule="evenodd" d="M284.633 64.2476V54H291.884V55.9212H286.814V58.0853H291.777V60.0065H286.814V62.3264H291.884V64.2476H284.633Z" fill="white"/>
</g>
<path fill-rule="evenodd" clip-rule="evenodd" d="M292.979 62.4958C294.024 62.3572 294.607 61.9423 294.93 59.2388L295.529 54H302.812V62.3275H303.733V66.138H301.551V64.2476H295.161V66.138H292.979V62.4958ZM295.851 62.3275H300.615V55.9201H297.495L297.096 59.3928C296.943 60.776 296.497 61.7278 295.851 62.3275Z" fill="white"/>
<mask id="mask2_1_231" style="mask-type:alpha" maskUnits="userSpaceOnUse" x="305" y="54" width="8" height="11">
<path d="M312.265 54H305.014V64.2476H312.265V54Z" fill="white"/>
</mask>
<g mask="url(#mask2_1_231)">
<path fill-rule="evenodd" clip-rule="evenodd" d="M305.014 64.2476V54H312.265V55.9212H307.195V58.0853H312.158V60.0065H307.195V62.3264H312.265V64.2476H305.014Z" fill="white"/>
</g>
<mask id="mask3_1_231" style="mask-type:alpha" maskUnits="userSpaceOnUse" x="313" y="54" width="10" height="11">
<path d="M322.204 54H313.972V64.2476H322.204V54Z" fill="white"/>
</mask>
<g mask="url(#mask3_1_231)">
<path fill-rule="evenodd" clip-rule="evenodd" d="M313.972 64.2466V53.999H318.765C320.992 53.999 322.206 55.5054 322.206 57.3023C322.206 59.0848 320.977 60.6055 318.765 60.6055H316.154V64.2466H313.972ZM319.979 57.3023C319.979 56.4418 319.333 55.9202 318.474 55.9202H316.154V58.6854H318.474C319.333 58.6854 319.979 58.1473 319.979 57.3023Z" fill="white"/>
</g>
<mask id="mask4_1_231" style="mask-type:alpha" maskUnits="userSpaceOnUse" x="321" y="54" width="11" height="11">
<path d="M331.981 54H321.335V64.2476H331.981V54Z" fill="white"/>
</mask>
<g mask="url(#mask4_1_231)">
<path fill-rule="evenodd" clip-rule="evenodd" d="M329.491 64.2468L328.862 62.5105H324.468L323.823 64.2468H321.335L325.297 53.9993H328.032L331.98 64.2468H329.491ZM326.666 56.1813L325.067 60.5904H328.262L326.666 56.1813Z" fill="white"/>
</g>
<mask id="mask5_1_231" style="mask-type:alpha" maskUnits="userSpaceOnUse" x="332" y="54" width="12" height="13">
<path d="M343.078 54H332.941V66.1369H343.078V54Z" fill="white"/>
</mask>
<g mask="url(#mask5_1_231)">
<path fill-rule="evenodd" clip-rule="evenodd" d="M340.897 64.2478H332.941V54.0002H335.121V62.3266H339.959V54.0002H342.158V62.3266H343.078V66.1372H340.897V64.2478Z" fill="white"/>
</g>
<mask id="mask6_1_231" style="mask-type:alpha" maskUnits="userSpaceOnUse" x="344" y="54" width="10" height="11">
<path d="M353.532 54H344.362V64.2476H353.532V54Z" fill="white"/>
</mask>
<g mask="url(#mask6_1_231)">
<path fill-rule="evenodd" clip-rule="evenodd" d="M344.361 64.2476V54H346.542V60.6212L351.289 54H353.532V64.2476H351.351V57.3801L346.465 64.2476H344.361Z" fill="white"/>
</g>
<mask id="mask7_1_231" style="mask-type:alpha" maskUnits="userSpaceOnUse" x="355" y="54" width="9" height="11">
<path d="M363.411 54H355.116V64.2476H363.411V54Z" fill="white"/>
</mask>
<g mask="url(#mask7_1_231)">
<path fill-rule="evenodd" clip-rule="evenodd" d="M355.116 64.2466L357.421 60.3448C356.314 60.084 355.177 59.1157 355.177 57.3023C355.177 55.3976 356.482 53.999 358.619 53.999H363.411V64.2466H361.23V60.6055H359.648L357.619 64.2466H355.116ZM361.23 58.6854V55.9202H358.942C358.066 55.9202 357.405 56.4418 357.405 57.3023C357.405 58.1628 358.066 58.6854 358.942 58.6854H361.23Z" fill="white"/>
</g>
<path fill-rule="evenodd" clip-rule="evenodd" d="M277.577 81.5369L274.474 77.4348L273.675 78.3879V81.5369H271.494V71.2893H273.675V75.8687L277.301 71.2893H279.989L275.917 76.0999L280.264 81.5369H277.577Z" fill="white"/>
<path fill-rule="evenodd" clip-rule="evenodd" d="M280.054 76.4214C280.054 73.3327 282.313 71.1221 285.399 71.1221C288.503 71.1221 290.761 73.3327 290.761 76.4214C290.761 79.51 288.503 81.7218 285.399 81.7218C282.313 81.7218 280.054 79.51 280.054 76.4214ZM288.519 76.4214C288.519 74.5012 287.29 73.0565 285.399 73.0565C283.511 73.0565 282.296 74.5012 282.296 76.4214C282.296 78.3261 283.511 79.7862 285.399 79.7862C287.29 79.7862 288.519 78.3261 288.519 76.4214Z" fill="white"/>
<path fill-rule="evenodd" clip-rule="evenodd" d="M301.213 81.5369V74.3612L298.324 81.5369H297.373L294.485 74.3612V81.5369H292.303V71.2893H295.361L297.848 77.4817L300.337 71.2893H303.409V81.5369H301.213Z" fill="white"/>
<path fill-rule="evenodd" clip-rule="evenodd" d="M312.463 81.5369V73.2105H307.624V81.5369H305.442V71.2893H314.661V81.5369H312.463Z" fill="white"/>
<path fill-rule="evenodd" clip-rule="evenodd" d="M318.859 71.29V74.931H321.47C323.683 74.931 324.912 76.4517 324.912 78.2343C324.912 80.0312 323.697 81.5375 321.47 81.5375H316.678V71.29H318.859ZM318.859 76.8511V79.6163H321.179C322.039 79.6163 322.685 79.0948 322.685 78.2343C322.685 77.3892 322.039 76.8511 321.179 76.8511H318.859ZM330.094 77.2355H328.45V81.5368H326.269V71.2903H328.45V75.3154H330.139C330.616 72.8264 332.674 71.1208 335.393 71.1208C338.497 71.1208 340.74 73.3326 340.74 76.4212C340.74 79.5088 338.497 81.7216 335.393 81.7216C332.566 81.7216 330.462 79.8929 330.094 77.2355ZM338.511 76.4212C338.511 74.5011 337.282 73.0564 335.393 73.0564C333.488 73.0564 332.276 74.5011 332.276 76.4212C332.276 78.326 333.488 79.785 335.393 79.785C337.282 79.785 338.511 78.326 338.511 76.4212Z" fill="white"/>
<path fill-rule="evenodd" clip-rule="evenodd" d="M344.294 81.5369V73.2105H341.297V71.2893H349.471V73.2105H346.491V81.5369H344.294Z" fill="white"/>
<path fill-rule="evenodd" clip-rule="evenodd" d="M350.872 81.5369V71.2893H358.124V73.2105H353.053V75.3763H358.015V77.2958H353.053V79.6173H358.124V81.5369H350.872Z" fill="white"/>
<path fill-rule="evenodd" clip-rule="evenodd" d="M359.832 81.5371V71.2896H364.624C366.852 71.2896 368.066 72.7959 368.066 74.5928C368.066 76.3754 366.837 77.8961 364.624 77.8961H362.013V81.5371H359.832ZM365.839 74.5928C365.839 73.7323 365.193 73.2108 364.334 73.2108H362.013V75.9759H364.334C365.193 75.9759 365.839 75.4379 365.839 74.5928Z" fill="white"/>
<path fill-rule="evenodd" clip-rule="evenodd" d="M376.442 81.5369V77.2355H371.605V81.5369H369.423V71.2893H371.605V75.316H376.442V71.2893H378.64V81.5369H376.442Z" fill="white"/>
<path fill-rule="evenodd" clip-rule="evenodd" d="M380.167 76.4214C380.167 73.3327 382.426 71.1221 385.513 71.1221C388.617 71.1221 390.875 73.3327 390.875 76.4214C390.875 79.51 388.617 81.7218 385.513 81.7218C382.426 81.7218 380.167 79.51 380.167 76.4214ZM388.632 76.4214C388.632 74.5012 387.403 73.0565 385.513 73.0565C383.624 73.0565 382.41 74.5012 382.41 76.4214C382.41 78.3261 383.624 79.7862 385.513 79.7862C387.403 79.7862 388.632 78.3261 388.632 76.4214Z" fill="white"/>
<path fill-rule="evenodd" clip-rule="evenodd" d="M392.415 81.5369V71.2893H399.668V73.2105H394.596V81.5369H392.415Z" fill="white"/>
<mask id="mask8_1_231" style="mask-type:alpha" maskUnits="userSpaceOnUse" x="400" y="71" width="12" height="11">
<path d="M411.037 71.1213V81.7206H400.33V71.1213H411.037Z" fill="white"/>
</mask>
<g mask="url(#mask8_1_231)">
<path fill-rule="evenodd" clip-rule="evenodd" d="M400.331 76.4204C400.331 73.3317 402.59 71.1211 405.676 71.1211C408.78 71.1211 411.038 73.3317 411.038 76.4204C411.038 79.5091 408.78 81.7208 405.676 81.7208C402.59 81.7208 400.331 79.5091 400.331 76.4204ZM408.796 76.4204C408.796 74.5003 407.566 73.0555 405.676 73.0555C403.788 73.0555 402.573 74.5003 402.573 76.4204C402.573 78.3251 403.788 79.7853 405.676 79.7853C407.566 79.7853 408.796 78.3251 408.796 76.4204Z" fill="white"/>
</g>
<path fill-rule="evenodd" clip-rule="evenodd" d="M271.002 93.7119C271.002 90.5627 273.383 88.4126 276.455 88.4126C278.714 88.4126 280.019 89.6406 280.742 90.9159L278.867 91.838C278.438 91.0083 277.516 90.347 276.455 90.347C274.598 90.347 273.244 91.7764 273.244 93.7119C273.244 95.6485 274.598 97.0768 276.455 97.0768C277.516 97.0768 278.438 96.432 278.867 95.5858L280.742 96.4925C280.005 97.7689 278.714 99.0123 276.455 99.0123C273.383 99.0123 271.002 96.8611 271.002 93.7119Z" fill="white"/>
<path fill-rule="evenodd" clip-rule="evenodd" d="M289.072 98.8276V90.5013H284.233V98.8276H282.052V88.5801H291.27V98.8276H289.072Z" fill="white"/>
<path fill-rule="evenodd" clip-rule="evenodd" d="M292.794 93.7119C292.794 90.6232 295.054 88.4126 298.14 88.4126C301.244 88.4126 303.502 90.6232 303.502 93.7119C303.502 96.8006 301.244 99.0123 298.14 99.0123C295.054 99.0123 292.794 96.8006 292.794 93.7119ZM301.259 93.7119C301.259 91.7918 300.03 90.347 298.14 90.347C296.252 90.347 295.037 91.7918 295.037 93.7119C295.037 95.6166 296.252 97.0768 298.14 97.0768C300.03 97.0768 301.259 95.6166 301.259 93.7119ZM305.043 98.828V88.5804H309.835C312.064 88.5804 313.277 90.0868 313.277 91.8837C313.277 93.6662 312.048 95.1869 309.835 95.1869H307.224V98.828H305.043ZM311.05 91.8837C311.05 91.0232 310.404 90.5016 309.545 90.5016H307.224V93.2668H309.545C310.404 93.2668 311.05 92.7287 311.05 91.8837Z" fill="white"/>
<path fill-rule="evenodd" clip-rule="evenodd" d="M316.999 98.8276V90.5013H314.003V88.5801H322.175V90.5013H319.195V98.8276H316.999Z" fill="white"/>
<path fill-rule="evenodd" clip-rule="evenodd" d="M329.661 98.8281L329.032 97.0918H324.638L323.993 98.8281H321.504L325.467 88.5806H328.202L332.15 98.8281H329.661ZM326.835 90.7626L325.238 95.1717H328.432L326.835 90.7626ZM271.494 116.118V105.87H276.286C278.514 105.87 279.728 107.377 279.728 109.174C279.728 110.956 278.499 112.477 276.286 112.477H273.675V116.118H271.494ZM277.501 109.174C277.501 108.313 276.855 107.791 275.995 107.791H273.675V110.557H275.995C276.855 110.557 277.501 110.019 277.501 109.174ZM280.592 111.002C280.592 107.913 282.851 105.702 285.938 105.702C289.042 105.702 291.3 107.913 291.3 111.002C291.3 114.09 289.042 116.302 285.938 116.302C282.851 116.302 280.592 114.09 280.592 111.002ZM289.057 111.002C289.057 109.082 287.828 107.637 285.938 107.637C284.049 107.637 282.835 109.082 282.835 111.002C282.835 112.906 284.049 114.367 285.938 114.367C287.828 114.367 289.057 112.906 289.057 111.002ZM292.349 111.002C292.349 107.853 294.73 105.702 297.802 105.702C300.061 105.702 301.366 106.93 302.089 108.206L300.214 109.128C299.785 108.298 298.863 107.637 297.802 107.637C295.945 107.637 294.591 109.066 294.591 111.002C294.591 112.938 295.945 114.367 297.802 114.367C298.863 114.367 299.785 113.722 300.214 112.876L302.089 113.782C301.352 115.059 300.061 116.302 297.802 116.302C294.73 116.302 292.349 114.151 292.349 111.002ZM302.908 111.002C302.908 107.853 305.289 105.702 308.361 105.702C310.62 105.702 311.925 106.93 312.648 108.206L310.773 109.128C310.344 108.298 309.422 107.637 308.361 107.637C306.503 107.637 305.15 109.066 305.15 111.002C305.15 112.938 306.503 114.367 308.361 114.367C309.422 114.367 310.344 113.722 310.773 112.876L312.648 113.782C311.911 115.059 310.62 116.302 308.361 116.302C305.289 116.302 302.908 114.151 302.908 111.002Z" fill="white"/>
<path fill-rule="evenodd" clip-rule="evenodd" d="M313.958 116.118V105.871H316.139V112.492L320.886 105.871H323.13V116.118H320.948V109.251L316.062 116.118H313.958Z" fill="white"/>
<path fill-rule="evenodd" clip-rule="evenodd" d="M325.162 116.118V105.871H327.342V112.492L332.089 105.871H334.332V116.118H332.15V109.251L327.265 116.118H325.162Z" fill="white"/>
<line x1="253" y1="43" x2="253" y2="128" stroke="white" stroke-width="2"/>
<defs>
<linearGradient id="paint0_linear_1_231" x1="-3.99983" y1="32.2363" x2="252" y2="206.236" gradientUnits="userSpaceOnUse">
<stop stop-color="#FE0110"/>
<stop offset="1" stop-color="#0500FF"/>
</linearGradient>
<linearGradient id="paint1_linear_1_231" x1="-3.99983" y1="32.2363" x2="252" y2="206.236" gradientUnits="userSpaceOnUse">
<stop stop-color="#FE0110"/>
<stop offset="1" stop-color="#0500FF"/>
</linearGradient>
<linearGradient id="paint2_linear_1_231" x1="-3.99983" y1="32.2363" x2="252" y2="206.236" gradientUnits="userSpaceOnUse">
<stop stop-color="#FE0110"/>
<stop offset="1" stop-color="#0500FF"/>
</linearGradient>
<linearGradient id="paint3_linear_1_231" x1="-3.99983" y1="32.2363" x2="252" y2="206.236" gradientUnits="userSpaceOnUse">
<stop stop-color="#FE0110"/>
<stop offset="1" stop-color="#0500FF"/>
</linearGradient>
<linearGradient id="paint4_linear_1_231" x1="-3.99983" y1="32.2363" x2="252" y2="206.236" gradientUnits="userSpaceOnUse">
<stop stop-color="#FE0110"/>
<stop offset="1" stop-color="#0500FF"/>
</linearGradient>
<linearGradient id="paint5_linear_1_231" x1="-3.99983" y1="32.2363" x2="252" y2="206.236" gradientUnits="userSpaceOnUse">
<stop stop-color="#FE0110"/>
<stop offset="1" stop-color="#0500FF"/>
</linearGradient>
<linearGradient id="paint6_linear_1_231" x1="-3.99983" y1="32.2363" x2="252" y2="206.236" gradientUnits="userSpaceOnUse">
<stop stop-color="#FE0110"/>
<stop offset="1" stop-color="#0500FF"/>
</linearGradient>
</defs>
</svg>
