<svg width="60" height="61" viewBox="0 0 60 61" fill="none" xmlns="http://www.w3.org/2000/svg">
<g clip-path="url(#clip0_1_309)">
<path d="M41.8356 20.0596L30.5311 16.2914C30.3372 16.2271 30.1288 16.2271 29.935 16.2914L18.6306 20.0596C18.2461 20.1878 17.9867 20.5478 17.9867 20.9532V28.5061C17.9866 39.3162 27.6089 45.132 30.2331 45.132C32.1159 45.132 42.4795 40.0142 42.4795 28.506V20.9532C42.4795 20.5478 42.22 20.1877 41.8356 20.0596ZM38.7113 28.5081C38.7113 36.6933 31.6261 41.0903 30.233 41.0919V20.2244C30.5141 20.225 37.8 22.6835 38.0667 22.7722C38.4512 22.9 38.7112 23.2603 38.7112 23.666V28.5081H38.7113Z" fill="white"/>
</g>
<defs>
<clipPath id="clip0_1_309">
<rect width="30" height="30" fill="white" transform="translate(15 15.2363)"/>
</clipPath>
</defs>
</svg>
