<svg width="60" height="61" viewBox="0 0 60 61" fill="none" xmlns="http://www.w3.org/2000/svg">
<path opacity="0.4" d="M31.9238 17.2769L35.1707 23.8019C35.4099 24.2747 35.8665 24.603 36.3931 24.6759L43.6863 25.7381C44.1122 25.7979 44.4988 26.0226 44.7599 26.3655C45.018 26.704 45.1289 27.133 45.0662 27.5547C45.0151 27.9048 44.8503 28.2288 44.598 28.4768L39.3133 33.5996C38.9267 33.9571 38.7517 34.4867 38.8451 35.0047L40.1462 42.2067C40.2847 43.0763 39.7086 43.8963 38.8451 44.0612C38.4891 44.1181 38.1245 44.0583 37.8036 43.8948L31.298 40.5054C30.8152 40.2617 30.2449 40.2617 29.7621 40.5054L23.2565 43.8948C22.4572 44.3194 21.4667 44.0305 21.0219 43.2426C20.857 42.9289 20.7987 42.5715 20.8527 42.2227L22.1538 35.0193C22.2471 34.5028 22.0706 33.9702 21.6855 33.6127L16.4009 28.4928C15.7722 27.8859 15.7532 26.8864 16.3586 26.2575C16.3717 26.2444 16.3863 26.2298 16.4009 26.2152C16.6518 25.9599 16.9814 25.7979 17.3373 25.7556L24.6305 24.692C25.1557 24.6175 25.6122 24.2922 25.8529 23.8165L28.9831 17.2769C29.2617 16.7166 29.8394 16.3679 30.4666 16.3825H30.6621C31.2061 16.4482 31.6802 16.7852 31.9238 17.2769Z" fill="white"/>
<path d="M30.4884 40.3237C30.2059 40.3325 29.9307 40.4084 29.6831 40.5441L23.2094 43.9258C22.4173 44.3038 21.4694 44.0105 21.0253 43.253C20.8607 42.9436 20.801 42.5889 20.8564 42.2415L22.1494 35.0533C22.2367 34.5308 22.062 33.9996 21.682 33.6318L16.3949 28.5132C15.7673 27.8987 15.7557 26.8902 16.3702 26.2611C16.3789 26.2524 16.3862 26.2451 16.3949 26.2378C16.6454 25.9897 16.9686 25.8262 17.3166 25.7751L24.616 24.7009C25.1445 24.6338 25.6032 24.3039 25.8362 23.8252L29.009 17.2033C29.3104 16.6691 29.8884 16.3509 30.5 16.3845C30.4884 16.818 30.4884 40.0289 30.4884 40.3237Z" fill="white"/>
</svg>
