<svg width="36" height="36" viewBox="0 0 36 36" fill="none" xmlns="http://www.w3.org/2000/svg">
<rect width="36" height="36" rx="18" fill="#3D1966"/>
<path d="M25.8866 13.5137C24.8593 13.5137 23.9115 13.1734 23.1504 12.5993C22.2774 11.9411 21.6503 10.9757 21.4288 9.86305C21.3739 9.58812 21.3444 9.30441 21.3416 9.01367H18.4071V17.0321L18.4036 21.4242C18.4036 22.5984 17.6389 23.594 16.579 23.9442C16.2714 24.0458 15.9391 24.0939 15.5932 24.075C15.1516 24.0507 14.7378 23.9175 14.3782 23.7023C13.6128 23.2446 13.0939 22.4142 13.0799 21.4643C13.0577 19.9796 14.258 18.7692 15.7415 18.7692C16.0344 18.7692 16.3157 18.817 16.579 18.9038V16.7122V15.9243C16.3012 15.8832 16.0186 15.8618 15.7328 15.8618C14.1089 15.8618 12.5901 16.5368 11.5045 17.7528C10.684 18.6718 10.1918 19.8443 10.1158 21.0737C10.0164 22.6887 10.6073 24.224 11.7534 25.3568C11.9218 25.523 12.0987 25.6774 12.2836 25.8198C13.2662 26.576 14.4675 26.9859 15.7328 26.9859C16.0186 26.9859 16.3012 26.9648 16.579 26.9237C17.7609 26.7486 18.8515 26.2075 19.7121 25.3568C20.7696 24.3116 21.3539 22.9239 21.3602 21.447L21.3451 14.8883C21.8496 15.2775 22.4012 15.5995 22.9932 15.8495C23.914 16.2379 24.8903 16.4348 25.895 16.4345V14.3036V13.513C25.8957 13.5137 25.8873 13.5137 25.8866 13.5137Z" fill="white"/>
</svg>
