<svg width="36" height="36" viewBox="0 0 36 36" fill="none" xmlns="http://www.w3.org/2000/svg">
<rect width="36" height="36" rx="18" fill="#3D1966"/>
<g clip-path="url(#clip0_1_778)">
<path d="M26.7491 13.7113C26.6546 12.9232 25.9118 12.1674 25.1347 12.0661C20.3957 11.4773 15.6035 11.4773 10.866 12.0661C10.0882 12.1672 9.34541 12.9232 9.25093 13.7113C8.91637 16.6 8.91637 19.4008 9.25093 22.2888C9.34541 23.0769 10.0882 23.8334 10.866 23.934C15.6035 24.5228 20.3958 24.5228 25.1347 23.934C25.9118 23.8336 26.6546 23.0769 26.7491 22.2888C27.0837 19.4011 27.0837 16.6 26.7491 13.7113ZM16.4999 21.0006V15.0004L21 18.0006L16.4999 21.0006Z" fill="white"/>
</g>
<defs>
<clipPath id="clip0_1_778">
<rect width="18" height="18" fill="white" transform="translate(9 9)"/>
</clipPath>
</defs>
</svg>
